:SAMPLES-PER-SECOND 30
:FRAME-RANGE 1-1770
:FULLY-SPECIFIED
:DEGREES
609
root  36.2932 39.888 -29.0352 -178.778 -43.8116 178.46
RightUpLeg  4.3468 -6.81025 -0.732553
RightLeg  7.58184 -11.808 1.3857
RightFoot  -13.9389 0.0122733 4.7092
RightToes  6.35937e-011 1.2921e-014 -6.02303e-014
Spine  7.09011 1.39776 8.07835
Spine1  1.20615 2.66604 -4.47199
HEad  7.44938 5.69326 -9.69354
LeftShoulder1  1.24805 0.241336 -32.1964
LeftArm  18.133 8.16654 -32.8817
LeftForeArm  -2.22082 -22.6243 -5.33825
LeftHand  0.234549 -2.77137 -3.12937
RightShoulder  12.2341 17.2881 51.4639
RightArm  17.6642 8.98833 18.7392
RightForeArm  13.8382 6.89442 15.615
RightHand  0.0683846 4.17142 0.55435
LeftUpLeg  -24.7261 26.0942 -10.3168
LeftLeg  14.8131 3.98072 1.00368
LeftFoot  -4.69855 0.656628 -10.8063
LeftToes  3.18074e-010 1.39432e-010 -7.71186e-011
610
root  35.8769 39.7945 -29.6629 -179.292 -44.455 179.133
RightUpLeg  6.06603 -6.45106 -0.0372898
RightLeg  6.81258 -12.8872 1.56703
RightFoot  -14.671 0.0471081 5.04178
RightToes  6.35937e-011 1.2921e-014 -6.02303e-014
Spine  6.61235 1.40673 7.72029
Spine1  1.51656 2.6323 -4.39999
HEad  7.80933 5.77302 -9.19398
LeftShoulder1  1.25588 0.225558 -32.2512
LeftArm  18.505 8.51902 -32.8353
LeftForeArm  -2.56758 -22.1374 -5.59015
LeftHand  0.227893 -2.6526 -3.08919
RightShoulder  12.367 17.2648 52.0689
RightArm  23.5296 9.12506 19.5918
RightForeArm  9.65974 10.2543 14.4079
RightHand  0.0765811 4.34475 0.63083
LeftUpLeg  -22.5725 20.4398 -7.50185
LeftLeg  9.90271 15.6475 -1.81138
LeftFoot  -4.35603 0.690579 -10.8634
LeftToes  3.18074e-010 1.39432e-010 -7.71186e-011
611
root  35.3984 39.6621 -30.3295 179.989 -45.2168 179.875
RightUpLeg  7.86507 -6.17892 0.651269
RightLeg  6.47313 -13.7196 1.75675
RightFoot  -15.5615 0.0880653 5.25157
RightToes  6.35937e-011 1.2921e-014 -6.02303e-014
Spine  6.23686 1.40721 7.39586
Spine1  1.88249 2.65115 -4.43723
HEad  8.02767 5.71498 -8.64831
LeftShoulder1  1.24409 0.257053 -32.2593
LeftArm  18.4716 8.87516 -32.8097
LeftForeArm  -2.40361 -21.1525 -6.24751
LeftHand  0.225861 -2.5555 -3.10535
RightShoulder  12.448 17.1709 52.6341
RightArm  27.6022 8.72439 20.3807
RightForeArm  6.52566 12.8543 12.9854
RightHand  0.0758302 4.4726 0.60558
LeftUpLeg  -20.2532 12.4673 -4.21644
LeftLeg  5.09546 29.0587 -5.09664
LeftFoot  -4.10422 0.657838 -9.99564
LeftToes  3.18074e-010 1.39432e-010 -7.71186e-011
612
root  34.8524 39.4726 -31.0527 179.216 -46.0139 -179.336
RightUpLeg  9.61055 -6.10018 1.24572
RightLeg  6.64421 -14.2678 1.99083
RightFoot  -16.7928 0.159622 5.74121
RightToes  6.35937e-011 1.2921e-014 -6.02303e-014
Spine  5.78966 1.47521 6.95604
Spine1  2.25309 2.73372 -4.449
HEad  8.16175 5.48492 -7.96699
LeftShoulder1  1.24088 0.257927 -32.1708
LeftArm  16.8936 9.27749 -32.757
LeftForeArm  -0.979443 -19.3914 -7.6839
LeftHand  0.231294 -2.58529 -3.17049
RightShoulder  12.4397 16.8923 53.2987
RightArm  30.4812 8.24605 20.9091
RightForeArm  4.50323 14.4266 11.9611
RightHand  0.0739452 4.5568 0.5731
LeftUpLeg  -18.9582 8.65599 -3.27184
LeftLeg  2.27486 35.575 -6.66503
LeftFoot  -4.20056 0.624545 -9.59064
LeftToes  3.18074e-010 1.39432e-010 -7.71186e-011
613
root  34.2317 39.2382 -31.8304 178.366 -46.8712 -178.574
RightUpLeg  11.4905 -6.26415 1.70457
RightLeg  7.10509 -14.7658 2.26594
RightFoot  -18.2142 0.269569 6.54114
RightToes  6.35937e-011 1.2921e-014 -6.02303e-014
Spine  5.27131 1.56705 6.41711
Spine1  2.67694 2.83898 -4.54201
HEad  8.21508 5.21111 -7.10926
LeftShoulder1  1.24849 0.216646 -31.9227
LeftArm  14.3395 9.7702 -32.5927
LeftForeArm  1.08641 -17.1407 -9.61737
LeftHand  0.219879 -2.26928 -3.15554
RightShoulder  12.5624 16.9037 53.7762
RightArm  31.0326 7.24485 21.5162
RightForeArm  4.3575 14.8197 11.6096
RightHand  0.0650467 4.50854 0.474716
LeftUpLeg  -17.9632 7.53325 -3.4568
LeftLeg  2.05412 36.6326 -6.34952
LeftFoot  -3.91206 0.633227 -9.37812
LeftToes  3.18074e-010 1.39432e-010 -7.71186e-011
614
root  33.539 39.0213 -32.6465 177.816 -47.4697 -178.183
RightUpLeg  13.3381 -6.82204 1.67388
RightLeg  7.83217 -14.1542 2.48985
RightFoot  -19.4478 0.403324 7.54555
RightToes  6.35937e-011 1.2921e-014 -6.02303e-014
Spine  4.75337 1.73238 5.56333
Spine1  3.11251 3.09668 -4.88496
HEad  8.26512 4.93114 -6.07288
LeftShoulder1  1.22745 0.247254 -31.6326
LeftArm  11.0501 10.2585 -31.998
LeftForeArm  3.74749 -14.3049 -11.8011
LeftHand  0.236975 -2.00993 -3.55862
RightShoulder  12.4978 16.6005 54.2867
RightArm  31.5415 6.7091 21.8324
RightForeArm  5.02423 14.2252 12.1115
RightHand  0.0824337 4.69099 0.654669
LeftUpLeg  -17.6785 7.94344 -4.34512
LeftLeg  4.49511 33.642 -4.64286
LeftFoot  -3.84634 0.214152 -2.91675
LeftToes  3.18074e-010 1.39432e-010 -7.71186e-011
615
root  32.7849 38.8757 -33.4462 177.964 -48.0819 -178.673
RightUpLeg  14.6974 -9.47957 0.342158
RightLeg  9.79048 -11.2945 2.13607
RightFoot  -20.1966 0.566971 9.07788
RightToes  6.35937e-011 1.2921e-014 -6.02303e-014
Spine  4.39518 1.82772 4.09164
Spine1  3.37482 3.31402 -5.42211
HEad  8.27866 4.90596 -5.07043
LeftShoulder1  1.22553 0.254849 -31.6613
LeftArm  7.81984 10.8137 -30.799
LeftForeArm  6.28391 -11.3132 -13.69
LeftHand  0.248895 -1.73715 -3.91555
RightShoulder  12.561 16.4907 54.835
RightArm  30.609 6.14638 21.8998
RightForeArm  7.37958 12.4196 13.3773
RightHand  0.0914455 4.78063 0.746043
LeftUpLeg  -17.6439 7.22294 -5.51841
LeftLeg  6.6558 35.4385 -2.44637
LeftFoot  -1.37506 -0.631852 7.33133
LeftToes  3.18074e-010 1.39432e-010 -7.71186e-011
616
root  31.9943 38.7553 -34.1995 178.661 -49.3603 179.946
RightUpLeg  15.0879 -17.0024 -2.98799
RightLeg  14.8223 -3.60137 0.58963
RightFoot  -20.6725 0.838154 11.9554
RightToes  6.35937e-011 1.2921e-014 -6.02303e-014
Spine  4.50014 1.74735 1.9321
Spine1  3.3474 3.18268 -5.65883
HEad  8.1949 4.7496 -4.25313
LeftShoulder1  1.25669 0.20795 -32.0716
LeftArm  4.05585 10.6107 -29.2765
LeftForeArm  8.5928 -7.44828 -15.5132
LeftHand  0.247004 -1.3148 -4.17269
RightShoulder  12.6209 16.3756 55.3865
RightArm  27.3954 5.98952 21.5403
RightForeArm  12.1356 8.9585 15.2429
RightHand  0.103545 4.89741 0.866723
LeftUpLeg  -18.3276 10.4094 -8.50193
LeftLeg  11.8379 30.463 1.9024
LeftFoot  -1.15593 -0.952027 10.7269
LeftToes  3.18074e-010 1.39432e-010 -7.71186e-011
617
root  31.2308 38.6505 -34.867 179.371 -51.1307 178.539
RightUpLeg  13.1995 -20.6961 -5.60849
RightLeg  23.7827 0.97016 0.248758
RightFoot  -19.6541 1.05379 16.2463
RightToes  6.35937e-011 1.2921e-014 -6.02303e-014
Spine  5.1291 1.66182 0.0859043
Spine1  3.12149 3.048 -6.07384
HEad  8.35538 4.06006 -3.71235
LeftShoulder1  1.33549 0.0170838 -32.2469
LeftArm  -0.240387 9.76053 -28.4531
LeftForeArm  10.8673 -2.78335 -16.8061
LeftHand  0.241397 -0.790817 -4.47989
RightShoulder  12.5265 16.2488 55.3294
RightArm  22.2219 5.58879 21.1213
RightForeArm  17.9725 4.43291 16.7285
RightHand  0.0805491 4.96953 0.598887
LeftUpLeg  -18.5353 14.2824 -11.3429
LeftLeg  15.702 24.4013 4.84545
LeftFoot  -2.67046 -0.778229 10.4467
LeftToes  3.18074e-010 1.39432e-010 -7.71186e-011
618
root  30.4492 38.5516 -35.3636 -179.917 -51.8346 177.475
RightUpLeg  8.58451 -19.2803 -7.3955
RightLeg  35.4049 2.7662 1.86002
RightFoot  -14.7969 0.590676 22.6634
RightToes  6.35937e-011 1.2921e-014 -6.02303e-014
Spine  5.59232 1.973 -0.326154
Spine1  3.18519 3.52661 -7.80926
HEad  8.77891 3.53017 -3.81506
LeftShoulder1  1.41195 -0.178686 -32.29
LeftArm  -3.14432 9.53717 -28.3279
LeftForeArm  12.111 0.201176 -17.1362
LeftHand  0.264476 -0.579624 -5.11448
RightShoulder  12.3609 16.3001 54.4996
RightArm  18.5357 4.72394 20.6717
RightForeArm  20.5438 0.898259 17.39
RightHand  0.143369 4.86178 1.32234
LeftUpLeg  -18.0989 14.3775 -12.0805
LeftLeg  18.456 23.6727 5.92018
LeftFoot  -4.82912 -0.557347 10.2797
LeftToes  3.18074e-010 1.39432e-010 -7.71186e-011
619
root  29.685 38.4893 -35.8013 -178.812 -52.2978 176.398
RightUpLeg  1.8941 -16.009 -8.57505
RightLeg  47.4838 3.14775 3.3514
RightFoot  -5.60726 -1.2942 24.7074
RightToes  6.35937e-011 1.2921e-014 -6.02303e-014
Spine  5.86291 2.11951 -1.21788
Spine1  2.99795 3.64625 -8.70038
HEad  8.91729 3.79161 -4.37109
LeftShoulder1  1.38274 -0.0811522 -32.5165
LeftArm  -2.873 10.3246 -28.3044
LeftForeArm  11.3254 0.027212 -17.172
LeftHand  0.290866 -0.478368 -5.73969
RightShoulder  12.1404 16.279 53.6229
RightArm  16.9045 4.17998 19.8816
RightForeArm  21.2327 -1.23617 17.6597
RightHand  0.17176 4.76397 1.66542
LeftUpLeg  -17.495 13.9511 -12.4471
LeftLeg  20.144 23.8279 6.02457
LeftFoot  -6.7323 -0.365833 10.0726
LeftToes  3.18074e-010 1.39432e-010 -7.71186e-011
